<?xml version="1.0" encoding="iso-8859-1"?>
<!DOCTYPE svg PUBLIC "-//W3C//DTD SVG 1.1//EN" "http://www.w3.org/Graphics/SVG/1.1/DTD/svg11.dtd">
<svg 
 version="1.1" xmlns="http://www.w3.org/2000/svg" xmlns:xlink="http://www.w3.org/1999/xlink" x="0px" y="0px" width="512px"
	 height="512px" viewBox="0 0 512 512" enable-background="new 0 0 512 512" xml:space="preserve"
><g id="3e91140ac1bfb9903b91c1b0ca02208e"><g></g><g fill="#000000"><path display="inline" d="M487.736,415.383L343.975,288.627c-9.081-8.004-21.807-10.296-33.353-7.184
		c-0.729-1.101-1.57-2.146-2.536-3.112L134.518,104.763l13.619-13.621c7.86,7.805,20.67,7.793,28.508-0.045l13.55-13.55
		c7.856-7.856,7.856-20.708,0-28.564L147.604,6.392c-7.856-7.856-20.708-7.856-28.563,0l-13.55,13.55
		c-7.838,7.838-7.85,20.647-0.045,28.507L90.589,63.304C83.355,60.516,74.816,62,69.004,67.813l-14.13,14.13
		c-5.813,5.813-7.296,14.351-4.509,21.585l-16.661,16.661c0,0-22.057,22.057-19.923,52.654
		c2.975,42.613,22.769,64.041,22.769,64.041s-4.029-27.749,16.073-49.558c11.542-12.521,23.775-24.443,23.775-24.443l15.426-15.426
		l173.571,173.567c1.342,1.342,2.86,2.367,4.442,3.251c-2.158,10.848,0.268,22.422,7.55,30.895l125.095,145.505
		c12.118,14.095,33.195,14.478,46.832,0.845l38.989-38.994C501.937,448.889,501.681,427.674,487.736,415.383z M437.488,488.943
		c-3.176,3.18-7.199,4.884-11.325,4.813c-4.122-0.075-7.953-1.925-10.777-5.207L291.21,344.109l11.029-11.025L426.415,477.52
		c2.828,3.282,6.655,5.132,10.773,5.207c4.126,0.079,8.149-1.633,11.321-4.809L437.488,488.943z"></path></g></g></svg>