<?xml version="1.0" encoding="iso-8859-1"?>
<!DOCTYPE svg PUBLIC "-//W3C//DTD SVG 1.1//EN" "http://www.w3.org/Graphics/SVG/1.1/DTD/svg11.dtd">
<svg 
 version="1.1" xmlns="http://www.w3.org/2000/svg" xmlns:xlink="http://www.w3.org/1999/xlink" x="0px" y="0px" width="512px"
	 height="512px" viewBox="0 0 512 512" style="enable-background:new 0 0 512 512;" xml:space="preserve"
><g id="afcae5a789ccd549f9c6e2a2f8169f41"><g></g><g fill="#000000"><path style="display: inline;" d="M174.24,143.58H153.8V61.82h20.44V143.58z M439.96,20.94v470.121
		c0,11.241-9.198,20.439-20.44,20.439H92.48c-11.242,0-20.44-9.198-20.44-20.439V20.94c0-11.242,9.198-20.44,20.44-20.44h327.04
		C430.762,0.5,439.96,9.698,439.96,20.94z M184.46,429.74c0-11.242-9.198-20.44-20.44-20.44h-20.44
		c-11.242,0-20.44,9.198-20.44,20.44v20.439c0,11.242,9.198,20.44,20.44,20.44h20.44c11.242,0,20.44-9.198,20.44-20.44V429.74z
		 M184.46,327.54c0-11.242-9.198-20.44-20.44-20.44h-20.44c-11.242,0-20.44,9.198-20.44,20.44v20.44
		c0,11.241,9.198,20.439,20.44,20.439h20.44c11.242,0,20.44-9.198,20.44-20.439V327.54z M184.46,225.34
		c0-11.242-9.198-20.439-20.44-20.439h-20.44c-11.242,0-20.44,9.197-20.44,20.439v20.44c0,11.242,9.198,20.439,20.44,20.439h20.44
		c11.242,0,20.44-9.197,20.44-20.439V225.34z M286.66,429.74c0-11.242-9.198-20.44-20.439-20.44H245.78
		c-11.242,0-20.44,9.198-20.44,20.44v20.439c0,11.242,9.198,20.44,20.44,20.44h20.441c11.241,0,20.439-9.198,20.439-20.44V429.74z
		 M286.66,327.54c0-11.242-9.198-20.44-20.439-20.44H245.78c-11.242,0-20.44,9.198-20.44,20.44v20.44
		c0,11.241,9.198,20.439,20.44,20.439h20.441c11.241,0,20.439-9.198,20.439-20.439V327.54z M286.66,225.34
		c0-11.242-9.198-20.439-20.439-20.439H245.78c-11.242,0-20.44,9.197-20.44,20.439v20.44c0,11.242,9.198,20.439,20.44,20.439h20.441
		c11.241,0,20.439-9.197,20.439-20.439V225.34z M388.86,429.74c0-11.242-9.198-20.44-20.44-20.44H347.98
		c-11.242,0-20.44,9.198-20.44,20.44v20.439c0,11.242,9.198,20.44,20.44,20.44h20.439c11.242,0,20.44-9.198,20.44-20.44V429.74z
		 M388.86,327.54c0-11.242-9.198-20.44-20.44-20.44H347.98c-11.242,0-20.44,9.198-20.44,20.44v20.44
		c0,11.241,9.198,20.439,20.44,20.439h20.439c11.242,0,20.44-9.198,20.44-20.439V327.54z M388.86,225.34
		c0-11.242-9.198-20.439-20.44-20.439H347.98c-11.242,0-20.44,9.197-20.44,20.439v20.44c0,11.242,9.198,20.439,20.44,20.439h20.439
		c11.242,0,20.44-9.197,20.44-20.439V225.34z M399.08,61.82c0-11.242-9.198-20.44-20.44-20.44H133.36
		c-11.242,0-20.44,9.198-20.44,20.44v81.76c0,11.242,9.198,20.44,20.44,20.44h245.28c11.242,0,20.44-9.198,20.44-20.44V61.82z"></path></g></g></svg>